<svg width="27" height="39" viewBox="0 0 27 39" fill="none" xmlns="http://www.w3.org/2000/svg">
<path d="M12.2492 0.466953C12.1618 0.510631 11.8283 0.66549 11.5106 0.816378C9.25919 1.88054 8.11958 3.0797 7.84163 4.67197C7.7781 5.01742 7.76222 5.60509 7.8059 5.92275L7.83369 6.10938L8.01634 6.08555C8.77079 5.98628 9.2036 5.87113 9.66817 5.64083C10.8316 5.05713 11.6257 3.90561 12.1062 2.09496C12.2134 1.69788 12.4675 0.514602 12.4675 0.419304C12.4675 0.375626 12.4318 0.383567 12.2492 0.466953Z" fill="#C9A555"/>
<path d="M5.5935 2.10725C4.76759 3.66378 4.40625 4.83117 4.40625 5.91916C4.40625 6.46315 4.44596 6.75698 4.57699 7.17391C4.74376 7.7179 5.14084 8.37307 5.53394 8.76221L5.74836 8.97266L6.05411 8.65897C6.4353 8.27381 6.66957 7.94423 6.8959 7.47966C7.12224 7.01508 7.22548 6.59418 7.25724 6.02637C7.30886 5.00986 6.99517 3.89011 6.22088 2.30578C6.03425 1.93253 5.87542 1.62282 5.86748 1.62282C5.85954 1.62282 5.73645 1.84121 5.5935 2.10725Z" fill="#C9A555"/>
<path d="M10.9021 5.86444C9.32571 6.39652 8.39259 6.9008 7.63021 7.63539C6.83209 8.40174 6.45487 9.25148 6.37545 10.4308L6.34766 10.8438L6.89959 10.8199C8.95246 10.7286 10.2628 9.55723 11.1721 7.00007C11.3508 6.49976 11.6089 5.6659 11.589 5.65002C11.5811 5.64605 11.2753 5.74135 10.9021 5.86444Z" fill="#C9A555"/>
<path d="M2.88898 7.20339C2.85325 7.26295 2.54353 8.39461 2.46412 8.75198C2.02336 10.7691 2.23778 12.2939 3.11929 13.3977C3.26223 13.5764 3.47268 13.8028 3.58784 13.8981C3.85387 14.1244 4.22315 14.4023 4.25889 14.4023C4.30257 14.4023 4.62817 13.8861 4.80288 13.5407C5.06892 13.0046 5.17216 12.6036 5.19201 11.9762C5.2079 11.5633 5.19996 11.3608 5.14834 11.1027C4.96965 10.2251 4.60037 9.45083 3.86579 8.41447C3.47665 7.87048 2.91281 7.16766 2.88898 7.20339Z" fill="#C9A555"/>
<path d="M8.12244 11.1421C7.32829 11.6741 7.00269 11.9322 6.46267 12.4564C5.33895 13.5483 4.84658 14.6125 4.8982 15.8553C4.92202 16.439 5.05703 17.0664 5.16026 17.0664C5.44616 17.0664 6.34355 16.6971 6.79621 16.3874C7.77301 15.7322 8.40833 14.5212 8.63466 12.9051C8.71011 12.377 8.78952 11.2135 8.76967 10.9237L8.75776 10.7132L8.12244 11.1421Z" fill="#C9A555"/>
<path d="M0.693097 13.3806C0.705009 13.4521 0.724863 13.6824 0.736775 13.8889C0.919429 16.6883 1.81682 18.4274 3.46864 19.1898C3.71483 19.305 4.38986 19.5273 4.48515 19.5273C4.52089 19.5273 4.63207 19.0588 4.69163 18.6538C4.75119 18.2646 4.71149 17.5221 4.61619 17.1648C4.29456 15.9934 3.48453 15.0285 1.9677 14.008C1.58254 13.7499 0.756629 13.2536 0.70898 13.2536C0.689126 13.2536 0.681185 13.3131 0.693097 13.3806Z" fill="#C9A555"/>
<path d="M8.04725 15.9651C7.33252 16.7315 6.95133 17.204 6.58999 17.7837C5.64098 19.2966 5.50598 20.726 6.17306 22.1317C6.36763 22.5446 6.35175 22.5288 6.55425 22.4295C6.90368 22.2508 7.38414 21.9133 7.674 21.6393C8.32123 21.0239 8.71434 20.2297 8.85331 19.2688C8.91684 18.8241 8.90493 17.7718 8.82949 17.1881C8.76596 16.6997 8.55551 15.5244 8.52374 15.4926C8.51183 15.4847 8.30138 15.6951 8.04725 15.9651Z" fill="#C9A555"/>
<path d="M0.00117052 19.077C0.00117052 19.0889 0.148088 19.3907 0.330742 19.7401C0.938265 20.9154 1.37108 21.5388 2.02228 22.19C2.66157 22.8254 3.24527 23.1867 3.97588 23.3852C4.26575 23.4647 4.40075 23.4766 5.0043 23.4766C5.38549 23.4766 5.74683 23.4647 5.81036 23.4448C5.9136 23.417 5.91757 23.4051 5.89375 23.2463C5.65948 21.6222 4.90901 20.5978 3.4438 19.9029C2.72113 19.5614 1.90316 19.3391 0.672226 19.1485C-0.0583906 19.0333 0.00117052 19.0412 0.00117052 19.077Z" fill="#C9A555"/>
<path d="M9.10293 21.0047C7.37963 23.2998 6.92696 25.0708 7.6417 26.7226C7.78464 27.0482 7.97524 27.3897 8.12613 27.5763L8.21348 27.6875L8.42393 27.5406C9.33323 26.9132 9.89311 26.1508 10.1552 25.1859C10.2584 24.8167 10.2664 24.7333 10.2664 24.0146C10.2664 23.2006 10.2306 22.9186 10.0281 22.0888C9.88914 21.5249 9.56354 20.4806 9.5278 20.4806C9.51192 20.4806 9.31735 20.7189 9.10293 21.0047Z" fill="#C9A555"/>
<path d="M11.3683 24.2001C10.9712 25.018 10.7528 25.5581 10.5821 26.1656C10.1413 27.6864 10.2843 29.0007 11.003 30.0648C11.2214 30.3825 11.6661 30.8828 11.7336 30.8828C11.8209 30.8828 12.4126 30.1879 12.631 29.8345C13.302 28.7426 13.3695 27.5077 12.8414 25.9512C12.6905 25.4945 11.9043 23.8228 11.7376 23.5965C11.6978 23.5409 11.6462 23.6243 11.3683 24.2001Z" fill="#C9A555"/>
<path d="M0.875 23.6407C0.875 23.7042 1.62944 24.7962 1.95901 25.2051C2.37197 25.7174 3.05891 26.3924 3.45598 26.6704C3.85306 26.9483 4.36925 27.2064 4.79412 27.3374C5.11575 27.4327 5.20311 27.4446 5.83843 27.4446C6.43801 27.4486 6.58095 27.4367 6.89861 27.3573L7.25995 27.266L7.18451 26.9801C6.64051 25.0146 5.27855 24.006 2.77301 23.7201C2.16152 23.6486 0.875 23.593 0.875 23.6407Z" fill="#C9A555"/>
<path d="M14.0662 26.7476C13.8955 27.8753 13.8439 29.142 13.9352 29.8607C14.0345 30.6151 14.2846 31.3418 14.6301 31.8818C14.8643 32.2431 15.3726 32.7514 15.7459 32.9936C16.0317 33.1802 16.4129 33.3867 16.4725 33.3867C16.5638 33.3867 16.9291 32.4814 17.0403 31.9771C17.1277 31.584 17.1078 30.77 17.0006 30.369C16.81 29.6542 16.4924 29.0348 15.9603 28.3439C15.6704 27.9667 14.638 26.8826 14.2926 26.5928L14.1099 26.4419L14.0662 26.7476Z" fill="#C9A555"/>
<path d="M5.16407 27.9902C4.80273 28.0299 3.52415 28.2245 3.5043 28.2443C3.48047 28.2681 4.55257 29.3164 4.88611 29.5983C5.70409 30.2893 6.63721 30.8174 7.38768 31.0238C8.07065 31.2105 8.8648 31.1986 9.52791 30.996C9.96469 30.865 10.4452 30.6427 10.4452 30.5751C10.4452 30.4759 10.0957 29.8684 9.84557 29.5388C9.17451 28.6454 8.24139 28.1411 6.99061 27.9862C6.5975 27.9386 5.6485 27.9425 5.16407 27.9902Z" fill="#C9A555"/>
<path d="M17.5117 30.1053C17.5117 30.1609 17.8492 30.9391 18.0835 31.4236C18.5401 32.3686 18.973 33.0277 19.4931 33.5598C20.1483 34.2388 20.8074 34.616 21.6572 34.8066C21.951 34.8702 23.039 34.9019 23.0946 34.8463C23.1422 34.8027 23.0469 34.0522 22.9516 33.6869C22.904 33.5122 22.7888 33.2024 22.6896 32.996C22.0463 31.63 20.7518 30.824 18.294 30.2562C17.615 30.1013 17.5117 30.0775 17.5117 30.1053Z" fill="#C9A555"/>
<path d="M10.2855 31.4258C10.2299 31.4338 10.0632 31.4616 9.9083 31.4854C9.32063 31.5767 8.2525 31.8904 7.25187 32.2756L7.13672 32.3193L7.39085 32.5019C7.90307 32.8791 8.69325 33.3596 9.23327 33.6256C10.2577 34.1299 10.9367 34.3086 11.7944 34.3086C12.4178 34.3046 12.8824 34.2093 13.4025 33.9671C13.7043 33.8281 14.3476 33.4231 14.3992 33.3437C14.4349 33.2802 14.2364 33.0102 13.8711 32.629C13.3192 32.0572 12.7394 31.7078 12.0326 31.5211C11.7626 31.4497 11.5641 31.4298 11.04 31.4219C10.6786 31.4139 10.3411 31.4139 10.2855 31.4258Z" fill="#C9A555"/>
<path d="M15.7189 33.9058C14.6706 34.0368 13.4556 34.6245 12.0182 35.6926L11.6211 35.9865L11.7402 36.0381C11.9785 36.1413 12.8401 36.4113 13.2928 36.5265C14.0313 36.7131 14.4284 36.7727 15.0955 36.7925C16.251 36.8322 17.0928 36.6019 17.8671 36.0301C18.149 35.8197 18.5897 35.3829 18.7803 35.1169L18.9074 34.9422L18.6572 34.7555C17.736 34.0765 16.7076 33.7787 15.7189 33.9058Z" fill="#C9A555"/>
<path d="M25.1882 34.8171C24.5807 34.96 24.2551 35.6271 24.5172 36.187C24.8745 36.9573 25.9585 36.9454 26.3 36.1671C26.5343 35.639 26.2444 35.0037 25.6885 34.8409C25.4622 34.7734 25.3867 34.7694 25.1882 34.8171Z" fill="#C9A555"/>
<path d="M20.8704 35.6153C19.6197 35.7861 18.3689 36.5088 16.6495 38.0573C16.6059 38.0931 16.7131 38.1328 17.1856 38.244C18.4165 38.5418 18.9168 38.6093 19.838 38.6053C20.8307 38.6053 21.4462 38.4703 22.1212 38.109C22.6771 37.8112 23.1973 37.3267 23.5864 36.747L23.7929 36.4452L23.5427 36.2824C22.7168 35.7503 21.7162 35.5002 20.8704 35.6153Z" fill="#C9A555"/>
</svg>
